<svg xmlns="http://www.w3.org/2000/svg" version="1.0" width="851.000000pt" height="315.000000pt" viewBox="0 0 851.000000 315.000000" preserveAspectRatio="xMidYMid meet">

<g transform="translate(0.000000,315.000000) scale(0.100000,-0.100000)" fill="#000000" stroke="none">
<path d="M7430 2701 l0 -309 218 72 c119 40 319 106 445 147 125 40 227 76 227 79 0 4 -233 88 -762 275 l-128 45 0 -309z"/>
<path d="M800 2729 c-268 -41 -479 -206 -573 -447 -93 -240 -71 -483 62 -684 96 -145 223 -235 418 -295 82 -25 101 -27 268 -27 158 -1 190 2 260 22 108 31 244 99 333 166 l73 56 90 0 90 0 72 -54 c199 -149 394 -205 672 -193 149 6 215 22 335 79 110 53 206 146 241 234 30 77 32 228 4 287 -34 71 -101 135 -189 177 -101 49 -200 73 -463 110 -224 33 -299 50 -352 82 -74 46 -75 145 -2 194 133 87 304 95 480 22 56 -23 89 -46 133 -90 32 -32 60 -58 63 -58 3 0 5 45 5 100 l0 100 255 0 255 0 0 -902 c0 -497 0 -909 0 -915 0 -10 34 -13 135 -13 l135 0 0 396 0 396 40 -36 c65 -59 140 -103 225 -133 74 -26 91 -28 230 -28 143 1 154 2 245 33 129 45 193 83 275 166 81 81 132 170 167 291 20 69 23 103 23 240 0 140 -3 169 -23 235 -27 83 -60 154 -103 217 -16 23 -29 43 -29 46 0 2 75 4 168 5 l167 2 5 -623 5 -622 138 -2 137 -1 0 346 c1 496 9 588 67 702 39 79 91 130 173 169 51 24 67 26 200 28 l145 3 3 116 3 117 -143 -5 c-156 -6 -221 -23 -304 -79 -53 -36 -125 -116 -167 -185 -34 -56 -44 -65 -44 -36 0 9 -1 81 -2 160 l-1 143 -602 -4 c-543 -3 -609 -5 -663 -21 -100 -30 -201 -85 -269 -147 -35 -32 -66 -55 -70 -52 -3 3 -6 55 -6 116 l0 109 -632 -5 c-520 -3 -650 -7 -730 -20 -266 -45 -390 -137 -444 -332 -19 -69 -17 -104 8 -170 32 -85 101 -154 201 -204 127 -63 349 -120 587 -151 115 -15 144 -25 179 -65 73 -84 38 -218 -68 -263 -56 -23 -328 -28 -414 -8 -125 29 -213 90 -257 176 l-20 40 -261 0 -261 0 -66 -61 c-93 -85 -156 -126 -232 -150 -201 -62 -418 -13 -555 125 -68 68 -121 166 -131 240 l-7 46 610 0 c335 0 612 2 615 5 2 3 1 37 -4 77 -41 351 -263 620 -570 693 -82 19 -256 27 -338 14z m247 -225 c120 -15 264 -133 329 -268 56 -117 102 -106 -421 -106 -250 0 -455 2 -455 4 0 29 49 148 81 195 68 102 171 165 291 180 62 7 89 6 175 -5z m3094 -24 c179 -33 325 -176 374 -365 64 -252 -92 -525 -339 -591 -321 -86 -630 210 -576 552 31 194 181 359 363 399 77 17 110 18 178 5z"/>
<path d="M3855 1005 c-42 -22 -55 -43 -55 -87 0 -47 24 -73 82 -88 98 -27 113 -35 116 -62 8 -66 -124 -79 -144 -14 -9 27 -20 34 -49 29 -21 -5 -22 -8 -14 -36 12 -44 51 -75 105 -83 92 -13 164 32 164 103 0 63 -25 82 -147 113 -34 8 -44 16 -49 37 -8 31 15 53 56 53 31 0 70 -25 70 -46 0 -9 11 -14 34 -14 34 0 35 1 25 29 -6 16 -21 39 -34 51 -32 30 -117 38 -160 15z"/>
<path d="M4537 992 c-10 -10 -17 -31 -17 -45 0 -21 -5 -27 -21 -27 -15 0 -20 -5 -17 -22 2 -13 10 -23 18 -23 12 0 16 -19 18 -102 3 -102 3 -103 27 -103 24 0 25 2 26 83 1 85 8 129 22 128 23 -2 27 1 27 19 0 13 -7 20 -20 20 -30 0 -26 38 5 46 16 4 25 13 25 25 0 26 -70 27 -93 1z"/>
<path d="M6635 955 c1 -28 -2 -35 -17 -35 -12 0 -18 -7 -18 -24 0 -16 5 -23 16 -22 13 1 16 -14 18 -85 2 -102 12 -119 67 -119 31 0 39 4 39 18 0 9 -10 22 -22 27 -21 9 -23 17 -23 85 0 71 1 75 23 74 17 -1 22 4 22 22 0 19 -5 24 -25 24 -22 0 -25 4 -25 35 0 32 -3 35 -29 35 -27 0 -29 -3 -26 -35z"/>
<path d="M8180 955 c0 -28 -4 -35 -20 -35 -15 0 -20 -7 -20 -25 0 -18 5 -25 20 -25 18 0 20 -7 20 -81 0 -104 8 -119 65 -119 38 0 45 3 45 19 0 13 -8 21 -22 23 -22 3 -23 8 -23 83 0 76 1 80 23 83 30 4 25 36 -6 40 -18 3 -22 10 -22 38 0 31 -2 34 -30 34 -28 0 -30 -3 -30 -35z"/>
<path d="M4188 922 c-56 -7 -104 -89 -92 -157 16 -93 123 -133 197 -75 13 11 27 29 30 40 4 16 0 20 -22 20 -15 0 -31 -8 -39 -20 -24 -39 -112 -12 -112 35 0 12 17 15 91 15 l92 0 -6 42 c-9 66 -68 109 -139 100z m60 -58 c41 -29 28 -44 -38 -44 -64 0 -72 8 -40 40 24 24 48 25 78 4z"/>
<path d="M4730 919 c-69 -15 -106 -96 -79 -173 36 -100 175 -114 224 -22 25 47 17 129 -17 163 -30 29 -80 42 -128 32z m70 -49 c11 -6 24 -27 29 -47 15 -54 -11 -107 -56 -111 -44 -4 -73 26 -73 77 0 68 49 108 100 81z"/>
<path d="M5196 915 c-20 -7 -36 -9 -36 -4 0 5 -13 9 -30 9 l-30 0 0 -125 0 -125 30 0 30 0 0 88 c0 76 3 92 20 107 13 12 27 15 45 11 25 -6 25 -8 25 -106 l0 -100 30 0 30 0 0 84 c0 99 18 134 62 123 32 -8 38 -29 38 -129 0 -76 0 -78 25 -78 l25 0 0 104 c0 84 -3 108 -17 125 -22 27 -82 31 -116 8 -21 -14 -27 -14 -36 -3 -17 20 -55 25 -95 11z"/>
<path d="M5593 918 c-60 -16 -90 -70 -84 -153 8 -97 131 -136 203 -65 15 16 28 33 28 39 0 20 -54 12 -68 -9 -24 -38 -92 -21 -107 28 -6 22 -5 22 84 22 l91 0 0 35 c0 67 -77 122 -147 103z m69 -55 c34 -31 23 -43 -43 -43 -63 0 -65 3 -31 43 19 22 50 22 74 0z"/>
<path d="M5884 919 c-12 -4 -25 -12 -29 -18 -9 -16 -25 -13 -25 4 0 9 -9 15 -25 15 l-25 0 0 -125 0 -125 30 0 30 0 0 78 c0 87 19 122 65 122 20 0 25 5 25 24 0 28 -16 37 -46 25z"/>
<path d="M6150 920 c-35 -9 -70 -41 -70 -66 0 -22 53 -17 68 6 14 23 50 26 77 6 28 -20 5 -42 -53 -51 -79 -12 -102 -29 -102 -81 0 -46 31 -69 91 -68 27 0 55 6 61 12 9 9 16 8 29 -4 24 -22 69 -11 69 16 0 11 -7 20 -15 20 -12 0 -15 16 -15 85 0 74 -3 87 -22 105 -12 11 -30 20 -39 20 -10 0 -23 2 -31 4 -7 2 -29 0 -48 -4z m69 -196 c-18 -22 -83 -15 -87 10 -5 25 10 38 55 45 34 6 38 4 41 -17 2 -13 -2 -30 -9 -38z"/>
<path d="M7010 912 c-51 -26 -74 -63 -73 -121 0 -30 7 -60 17 -76 24 -36 80 -58 124 -50 34 6 92 53 92 74 0 20 -54 12 -68 -9 -24 -39 -112 -12 -112 35 0 12 17 15 91 15 l92 0 -6 41 c-11 81 -89 126 -157 91z m82 -49 c34 -31 23 -43 -42 -43 -33 0 -60 3 -60 7 0 4 10 17 22 30 25 27 54 29 80 6z"/>
<path d="M7299 913 c-22 -9 -35 -10 -37 -3 -2 5 -15 10 -28 10 l-24 0 0 -125 0 -125 30 0 30 0 0 88 c0 73 3 92 18 105 10 10 25 17 33 17 31 0 39 -23 39 -117 l0 -93 30 0 30 0 0 89 c0 68 4 93 16 105 17 17 42 20 61 8 11 -7 21 -80 22 -164 1 -34 4 -38 26 -38 l25 0 0 105 c0 92 -3 108 -20 125 -28 28 -92 30 -121 4 -10 -9 -19 -10 -25 -4 -22 22 -70 28 -105 13z"/>
<path d="M7708 922 c-91 -11 -126 -164 -53 -232 51 -48 163 -25 186 38 7 19 5 22 -19 22 -16 0 -32 -8 -40 -20 -24 -39 -112 -12 -112 35 0 12 17 15 91 15 l92 0 -6 42 c-9 66 -68 109 -139 100z m60 -58 c41 -29 28 -44 -38 -44 -64 0 -72 8 -40 40 24 24 48 25 78 4z"/>
<path d="M7983 914 c-23 -8 -39 -10 -41 -4 -2 6 -15 10 -28 10 l-24 0 0 -125 0 -125 30 0 30 0 0 88 c0 95 13 122 56 122 37 0 44 -20 44 -117 l0 -93 30 0 30 0 0 99 c0 83 -3 102 -20 123 -25 32 -58 39 -107 22z"/>
<path d="M4936 912 c-2 -4 -4 -60 -3 -125 l1 -117 27 0 c27 0 27 1 30 79 4 87 23 121 66 121 18 0 23 5 23 25 0 20 -5 25 -27 25 -14 0 -35 -7 -45 -17 -17 -15 -18 -15 -18 0 0 18 -44 25 -54 9z"/>
<path d="M6350 817 c0 -76 4 -108 15 -124 21 -30 74 -39 114 -19 17 9 31 12 31 6 0 -5 13 -10 28 -10 l28 0 -1 108 c-2 148 -1 142 -30 142 -25 0 -25 -1 -25 -83 0 -97 -14 -127 -60 -127 -41 0 -50 23 -50 124 0 85 0 86 -25 86 l-25 0 0 -103z"/>
<path d="M6780 795 l0 -125 25 0 c22 0 25 4 26 38 1 117 21 162 69 162 31 0 35 6 24 34 -8 20 -43 20 -72 0 -20 -14 -22 -14 -22 0 0 10 -9 16 -25 16 l-25 0 0 -125z"/>
</g>
</svg>