<?xml version="1.0" encoding="UTF-8"?>
<svg version="1.1" xmlns="http://www.w3.org/2000/svg" width="54" height="41">
<path d="M0 0 C3.29789101 0.6595782 6.16739384 1.30389975 9.30859375 2.34765625 C10.12787354 2.6194873 10.94715332 2.89131836 11.79125977 3.17138672 C12.66451904 3.4654541 13.53777832 3.75952148 14.4375 4.0625 C15.34749756 4.36687988 16.25749512 4.67125977 17.19506836 4.98486328 C25.14205702 7.66484323 33.02578008 10.50998302 40.89038086 13.42211914 C41.76315674 13.7443042 42.63593262 14.06648926 43.53515625 14.3984375 C44.68576538 14.82648682 44.68576538 14.82648682 45.85961914 15.26318359 C47.89075062 15.9623914 49.90870169 16.51403793 52 17 C51 20 51 20 49.07766724 20.96818542 C48.23622162 21.24576187 47.394776 21.52333832 46.52783203 21.80932617 C45.57659454 22.12943161 44.62535706 22.44953705 43.64529419 22.77934265 C42.60992523 23.11383926 41.57455627 23.44833588 40.5078125 23.79296875 C39.45093231 24.14386063 38.39405212 24.4947525 37.30514526 24.85627747 C35.06579817 25.59722955 32.82452953 26.33239515 30.58154297 27.06225586 C27.14249029 28.18180621 23.70959085 29.31876105 20.27734375 30.45898438 C18.10450628 31.17550986 15.93133966 31.89103812 13.7578125 32.60546875 C12.726492 32.94603806 11.69517151 33.28660736 10.63259888 33.63749695 C9.19628616 34.10347038 9.19628616 34.10347038 7.73095703 34.57885742 C6.88792023 34.85404709 6.04488342 35.12923676 5.17630005 35.4127655 C3 36 3 36 0 36 C0 24.12 0 12.24 0 0 Z " fill="#CC041C" transform="translate(1,4)"/>
</svg>
